<svg xmlns="http://www.w3.org/2000/svg" viewBox="0 0 198.43 198.43"><defs><style>.cls-1{fill:#58a293;}.cls-2{fill:#fff;}.cls-3{fill:none;}</style></defs><g id="Layer_2" data-name="Layer 2"><g id="理悟"><rect class="cls-1" width="198.43" height="198.43" rx="11.63"/><polygon class="cls-2" points="110.55 63.95 110.55 75.29 110.55 86.62 110.55 97.96 110.55 109.19 99.21 109.19 99.21 120.53 87.87 120.53 76.53 120.53 76.53 131.87 87.87 131.87 99.21 131.87 99.21 120.53 110.55 120.53 110.55 120.64 110.55 131.98 110.55 143.32 110.55 154.66 121.89 154.66 121.89 143.32 121.89 131.98 121.89 120.64 121.89 109.3 121.89 97.96 121.89 86.62 121.89 75.29 121.89 63.95 121.89 52.61 110.55 52.61 110.55 63.95"/><polygon class="cls-2" points="189.92 143.21 189.92 143.21 189.92 143.21 189.92 143.21"/><path class="cls-2" d="M189.92,137.54a17,17,0,0,0-17-17H133.23v22.68h0v11.34h39.68A17,17,0,0,0,189.92,137.54Zm-17,5.67H144.57V131.87h28.34a5.67,5.67,0,1,1,0,11.34Z"/><polygon class="cls-3" points="144.57 97.86 155.91 97.86 155.91 86.52 144.57 86.52 133.23 86.52 133.23 97.86 144.57 97.86"/><path class="cls-3" d="M172.91,86.52h-5.67V97.86h11.34V92.19h0A5.67,5.67,0,0,0,172.91,86.52Z"/><polygon class="cls-2" points="178.58 63.95 189.92 63.95 189.92 52.61 178.58 52.61 167.24 52.61 155.91 52.61 144.57 52.61 133.23 52.61 133.23 63.95 144.57 63.95 155.91 63.95 155.91 63.95 155.91 75.18 155.91 75.18 144.57 75.18 133.23 75.18 133.23 86.52 144.57 86.52 155.91 86.52 155.91 97.86 144.57 97.86 133.23 97.86 133.23 86.52 121.89 86.52 121.89 97.86 133.23 97.86 133.23 109.19 144.57 109.19 155.91 109.19 167.24 109.19 178.58 109.19 189.92 109.19 189.92 97.86 189.92 92.19 178.58 92.19 178.58 97.86 167.24 97.86 167.24 86.52 172.91 86.52 172.91 86.52 172.91 75.18 167.24 75.18 167.24 63.95 178.58 63.95"/><polygon class="cls-2" points="172.91 75.18 172.91 75.18 172.91 75.18 172.91 75.18"/><path class="cls-2" d="M172.91,86.52a5.67,5.67,0,0,1,5.67,5.67h0V86.52Z"/><path class="cls-2" d="M172.91,86.52h5.67v5.67h11.34a17,17,0,0,0-17-17h0V86.52Z"/><polygon class="cls-3" points="42.52 86.46 42.52 75.13 42.52 63.89 31.18 63.89 31.18 75.23 31.18 86.57 31.18 97.91 31.18 109.14 42.52 109.14 42.52 120.48 53.86 120.48 65.2 120.48 65.2 109.25 65.2 109.14 53.86 109.14 42.52 109.14 42.52 97.8 42.52 97.8 42.52 86.46 53.86 86.46 53.86 97.8 65.2 97.8 65.2 86.57 65.2 86.46 53.86 86.46 42.52 86.46"/><polygon class="cls-3" points="53.86 75.13 65.2 75.13 65.2 63.89 65.2 63.89 53.86 63.89 53.86 75.13"/><polygon class="cls-3" points="42.52 131.82 42.52 120.48 31.18 120.48 31.18 120.59 31.18 131.93 31.18 143.26 42.52 143.26 53.86 143.26 65.2 143.26 65.2 143.26 65.2 131.93 65.2 131.82 53.86 131.82 42.52 131.82"/><path class="cls-2" d="M76.54,52.56H8.5V63.89H19.84v45.25H8.5v11.34H19.84v22.78H8.5V154.6H99.21V143.26H76.54V63.89H82.2V52.56ZM65.2,131.93v11.33h-34V120.48H42.52v11.34H65.2Zm0-45.36V97.8H53.86V86.46H42.52V97.8h0v11.34H65.2v11.34H42.52V109.14H31.18V63.89H42.52V86.46H65.2Zm0-22.68V75.13H53.86V63.89Z"/><polygon class="cls-2" points="87.87 75.13 76.53 75.13 76.53 86.46 87.87 86.46 99.21 86.46 99.21 75.13 99.21 69.56 87.87 69.56 87.87 75.13"/><path class="cls-2" d="M82.2,63.89a5.67,5.67,0,0,1,5.67,5.67h0V63.89Z"/><path class="cls-2" d="M82.2,52.56V63.89h5.67v5.67H99.21A17,17,0,0,0,82.2,52.56Z"/><rect class="cls-2" x="76.54" y="97.86" width="5.67" height="11.34"/><rect class="cls-2" x="87.87" y="86.52" width="11.34" height="5.67"/><path class="cls-2" d="M87.87,92.19a5.67,5.67,0,0,1-5.67,5.67h5.67Z"/><path class="cls-2" d="M87.87,97.86H82.2v11.33a17,17,0,0,0,17-17H87.87Z"/></g></g></svg>