<svg xmlns="http://www.w3.org/2000/svg" viewBox="0 0 128 128"><g id="icons"><g id="home"><path d="M12.21,60.17A3.67,3.67,0,0,1,9,58.56a3.89,3.89,0,0,1,.4-5.64L57,13.82c4.43-3.23,10.88-3.23,14.91,0l47.56,38.69a3.9,3.9,0,0,1,.4,5.65c-1.61,1.61-4,2-5.64.4L67,20.67a5.1,5.1,0,0,0-4.83,0L14.62,59.36A2.94,2.94,0,0,1,12.21,60.17ZM102.9,116.6H76.7a3.81,3.81,0,0,1-4-4V93.63c0-2.83-4.84-5.65-8.47-5.65s-8.06,2.42-8.06,5.65v18.94a3.81,3.81,0,0,1-4,4H26.72c-6,0-10.48-4.43-10.48-10.08V68.23a3.81,3.81,0,0,1,4-4,3.81,3.81,0,0,1,4,4v38.29c0,1.21.8,2,2.42,2H48.48V93.63c0-8.07,8.47-13.71,16.12-13.71s16.53,5.64,16.53,13.71v14.91H103.3c1.21,0,2,0,2-2.42V68.23a4,4,0,0,1,8.07,0v38.29C113,112.57,108.94,116.6,102.9,116.6Z"/><path d="M12.21,60.17A3.67,3.67,0,0,1,9,58.56a3.89,3.89,0,0,1,.4-5.64L57,13.82c4.43-3.23,10.88-3.23,14.91,0l47.56,38.69a3.9,3.9,0,0,1,.4,5.65c-1.61,1.61-4,2-5.64.4L67,20.67a5.1,5.1,0,0,0-4.83,0L14.62,59.36A2.94,2.94,0,0,1,12.21,60.17ZM102.9,116.6H76.7a3.81,3.81,0,0,1-4-4V93.63c0-2.83-4.84-5.65-8.47-5.65s-8.06,2.42-8.06,5.65v18.94a3.81,3.81,0,0,1-4,4H26.72c-6,0-10.48-4.43-10.48-10.08V68.23a3.81,3.81,0,0,1,4-4,3.81,3.81,0,0,1,4,4v38.29c0,1.21.8,2,2.42,2H48.48V93.63c0-8.07,8.47-13.71,16.12-13.71s16.53,5.64,16.53,13.71v14.91H103.3c1.21,0,2,0,2-2.42V68.23a4,4,0,0,1,8.07,0v38.29C113,112.57,108.94,116.6,102.9,116.6Z"/></g></g></svg>