<svg xmlns="http://www.w3.org/2000/svg" viewBox="0 0 412.61 412.61"><defs><style>.cls-1,.cls-3{fill:#f69279;}.cls-1{fill-rule:evenodd;}.cls-2{fill:#fff;}</style></defs><g id="Layer_2" data-name="Layer 2"><g id="礼物"><path class="cls-1" d="M223.12,4.81l23.65,14.72a31.85,31.85,0,0,0,17.88,4.79l27.84-.93a31.83,31.83,0,0,1,29.13,16.82l13.12,24.58a31.83,31.83,0,0,0,13.08,13.08L372.4,91a31.83,31.83,0,0,1,16.82,29.13L388.29,148a31.87,31.87,0,0,0,4.79,17.88l14.72,23.65a31.81,31.81,0,0,1,0,33.63l-14.72,23.65a31.85,31.85,0,0,0-4.79,17.88l.93,27.84a31.83,31.83,0,0,1-16.82,29.13l-24.58,13.12a31.83,31.83,0,0,0-13.08,13.08L321.62,372.4a31.83,31.83,0,0,1-29.13,16.82l-27.84-.93a31.85,31.85,0,0,0-17.88,4.79L223.12,407.8a31.81,31.81,0,0,1-33.63,0l-23.65-14.72A31.87,31.87,0,0,0,148,388.29l-27.84.93A31.83,31.83,0,0,1,91,372.4L77.87,347.82a31.83,31.83,0,0,0-13.08-13.08L40.21,321.62a31.83,31.83,0,0,1-16.82-29.13l.93-27.84a31.85,31.85,0,0,0-4.79-17.88L4.81,223.12a31.81,31.81,0,0,1,0-33.63l14.72-23.65A31.87,31.87,0,0,0,24.32,148l-.93-27.84A31.83,31.83,0,0,1,40.21,91L64.79,77.87A31.83,31.83,0,0,0,77.87,64.79L91,40.21a31.83,31.83,0,0,1,29.13-16.82l27.84.93a31.87,31.87,0,0,0,17.88-4.79L189.49,4.81A31.81,31.81,0,0,1,223.12,4.81Z"/><circle class="cls-2" cx="206.08" cy="206.32" r="171.59"/><circle class="cls-3" cx="207.35" cy="206.27" r="155.6"/><path class="cls-2" d="M100.08,202.75c3.81-13.89,6.26-33.09,6.48-54.33a2.52,2.52,0,0,1,3.07-2.45l14.13,3.2a2.54,2.54,0,0,1,2,2.6c-1.31,25.2-3.4,42.47-7,57.63a2.53,2.53,0,0,1-3.38,1.78l-13.76-5.44A2.51,2.51,0,0,1,100.08,202.75Zm67.78-58.51A163.27,163.27,0,0,1,181.38,175a2.52,2.52,0,0,1-1.13,3L169,184.46a2.51,2.51,0,0,1-3.68-1.49,174.37,174.37,0,0,0-6.45-18.91,2.53,2.53,0,0,0-4.86,1V279.2c0,16.34.19,21,1.1,30.25a2.53,2.53,0,0,1-2.51,2.77H131a2.53,2.53,0,0,1-2.51-2.82c.87-7.1,1.22-16.08,1.22-30.2V125.56a188.76,188.76,0,0,0-1-22.19,2.53,2.53,0,0,1,2.51-2.8h21.36a2.52,2.52,0,0,1,2.5,2.83,168.52,168.52,0,0,0-1,22.16v19a2.52,2.52,0,0,0,3.7,2.23l6.73-3.55A2.52,2.52,0,0,1,167.86,144.24Zm124.91,47.82a163.08,163.08,0,0,0,19.44-.77,2.52,2.52,0,0,1,2.81,2.5v18.83a2.52,2.52,0,0,1-2.79,2.51,160.83,160.83,0,0,0-19.46-.83H188.9a165.42,165.42,0,0,0-19.69.83,2.52,2.52,0,0,1-2.79-2.51V193.77a2.52,2.52,0,0,1,2.82-2.5c5.34.62,9.64.79,19.66.79h8.34a2.54,2.54,0,0,0,2.37-1.64c3.37-8.88,3.87-10.26,6.8-19.37a2.53,2.53,0,0,0-2.4-3.3h-4.34c-5.21,0-10.88.31-15.16.67a2.53,2.53,0,0,1-2.72-2.52V148.7a2.52,2.52,0,0,1,2.87-2.49,118.54,118.54,0,0,0,15.7.68h10.86a2.51,2.51,0,0,0,2.45-1.94q1-4.12,3-12.87a2.52,2.52,0,0,0-2.45-3.08H199.44c-11.11,0-17.59.17-23.59.81a2.52,2.52,0,0,1-2.78-2.5v-18.5a2.52,2.52,0,0,1,2.73-2.51c6.94.56,14.28.92,25,.92h80.95c9.54,0,18.23-.35,24.56-.89a2.51,2.51,0,0,1,2.72,2.51v18.47a2.52,2.52,0,0,1-2.78,2.51c-6-.65-12-.82-22.9-.82h-38.9a2.53,2.53,0,0,0-2.44,1.86c-.48,1.77-.76,3.2-2,9.23a2.29,2.29,0,0,1-.07.28c-.15.48-.23,1-.8,3.4a2.53,2.53,0,0,0,2.45,3.12h31.41c5.48,0,10.66-.15,14.86-.55a2.51,2.51,0,0,1,2.75,2.67c-.27,3.89-.41,9.32-.41,14.62v25.91a2.52,2.52,0,0,0,2.52,2.52ZM202,311.76H181.7a2.52,2.52,0,0,1-2.51-2.81A179,179,0,0,0,180,288.6V243.88c0-4.92-.14-9.26-.55-13.37a2.52,2.52,0,0,1,2.74-2.77c4.21.41,9,.55,15.93.55h84.61c7.24,0,11.51-.12,14.72-.46a2.52,2.52,0,0,1,2.76,2.77c-.37,3.67-.51,8-.51,14v43.8a186.52,186.52,0,0,0,1,20.58,2.51,2.51,0,0,1-2.5,2.81H277.41a2.52,2.52,0,0,1-2.52-2.52v-4.82a2.52,2.52,0,0,0-2.53-2.52H207a2.52,2.52,0,0,0-2.52,2.52v4.82A2.52,2.52,0,0,1,202,311.76Zm5-32.33h65.35a2.53,2.53,0,0,0,2.53-2.53V252.83a2.52,2.52,0,0,0-2.53-2.52H207a2.52,2.52,0,0,0-2.52,2.52V276.9A2.52,2.52,0,0,0,207,279.43Zm56.18-111.68H234.58a2.52,2.52,0,0,0-2.41,1.8c-1.59,5.33-3.73,11.69-6.19,19.2a2.53,2.53,0,0,0,2.4,3.31h34.81a2.52,2.52,0,0,0,2.52-2.52V170.28A2.52,2.52,0,0,0,263.19,167.75Z"/></g></g></svg>
